<svg width="48" height="24" viewBox="0 0 48 24" fill="none" xmlns="http://www.w3.org/2000/svg">
<path d="M3.984 11.144C3.232 11.144 2.58 10.968 2.028 10.616C1.484 10.256 1.06 9.752 0.756 9.104C0.46 8.448 0.312 7.684 0.312 6.812C0.312 5.932 0.464 5.168 0.768 4.52C1.072 3.872 1.504 3.372 2.064 3.02C2.624 2.66 3.288 2.48 4.056 2.48C4.656 2.48 5.208 2.596 5.712 2.828C6.216 3.06 6.628 3.396 6.948 3.836C7.276 4.276 7.456 4.812 7.488 5.444H5.328C5.288 5.036 5.16 4.712 4.944 4.472C4.728 4.224 4.432 4.1 4.056 4.1C3.736 4.1 3.444 4.204 3.18 4.412C2.924 4.612 2.72 4.916 2.568 5.324C2.424 5.724 2.352 6.22 2.352 6.812C2.352 7.396 2.424 7.892 2.568 8.3C2.712 8.7 2.904 9.004 3.144 9.212C3.392 9.42 3.672 9.524 3.984 9.524C4.248 9.524 4.476 9.472 4.668 9.368C4.868 9.256 5.028 9.096 5.148 8.888C5.276 8.68 5.352 8.428 5.376 8.132H7.536C7.472 8.748 7.288 9.284 6.984 9.74C6.688 10.188 6.288 10.536 5.784 10.784C5.28 11.024 4.68 11.144 3.984 11.144ZM17.1167 11.144C16.3807 11.144 15.7327 10.972 15.1727 10.628C14.6207 10.276 14.1887 9.776 13.8767 9.128C13.5727 8.48 13.4207 7.708 13.4207 6.812C13.4207 5.908 13.5727 5.132 13.8767 4.484C14.1887 3.836 14.6207 3.34 15.1727 2.996C15.7327 2.652 16.3807 2.48 17.1167 2.48C17.8527 2.48 18.4967 2.652 19.0487 2.996C19.6007 3.34 20.0287 3.836 20.3327 4.484C20.6447 5.124 20.8007 5.9 20.8007 6.812C20.8007 7.708 20.6447 8.48 20.3327 9.128C20.0287 9.776 19.6007 10.276 19.0487 10.628C18.4967 10.972 17.8527 11.144 17.1167 11.144ZM17.1167 9.524C17.4287 9.524 17.7087 9.42 17.9567 9.212C18.2047 8.996 18.4007 8.688 18.5447 8.288C18.6887 7.88 18.7607 7.388 18.7607 6.812C18.7607 6.228 18.6887 5.736 18.5447 5.336C18.4007 4.928 18.2047 4.62 17.9567 4.412C17.7087 4.204 17.4287 4.1 17.1167 4.1C16.8047 4.1 16.5207 4.208 16.2647 4.424C16.0167 4.632 15.8207 4.94 15.6767 5.348C15.5327 5.748 15.4607 6.236 15.4607 6.812C15.4607 7.388 15.5327 7.88 15.6767 8.288C15.8207 8.688 16.0167 8.996 16.2647 9.212C16.5207 9.42 16.8047 9.524 17.1167 9.524ZM30.3934 11.144C29.6414 11.144 28.9894 10.968 28.4374 10.616C27.8934 10.256 27.4694 9.752 27.1654 9.104C26.8694 8.448 26.7214 7.684 26.7214 6.812C26.7214 5.932 26.8734 5.168 27.1774 4.52C27.4814 3.872 27.9134 3.372 28.4734 3.02C29.0334 2.66 29.6974 2.48 30.4654 2.48C31.0654 2.48 31.6174 2.596 32.1214 2.828C32.6254 3.06 33.0374 3.396 33.3574 3.836C33.6854 4.276 33.8654 4.812 33.8974 5.444H31.7374C31.6974 5.036 31.5694 4.712 31.3534 4.472C31.1374 4.224 30.8414 4.1 30.4654 4.1C30.1454 4.1 29.8534 4.204 29.5894 4.412C29.3334 4.612 29.1294 4.916 28.9774 5.324C28.8334 5.724 28.7614 6.22 28.7614 6.812C28.7614 7.396 28.8334 7.892 28.9774 8.3C29.1214 8.7 29.3134 9.004 29.5534 9.212C29.8014 9.42 30.0814 9.524 30.3934 9.524C30.6574 9.524 30.8854 9.472 31.0774 9.368C31.2774 9.256 31.4374 9.096 31.5574 8.888C31.6854 8.68 31.7614 8.428 31.7854 8.132H33.9454C33.8814 8.748 33.6974 9.284 33.3934 9.74C33.0974 10.188 32.6974 10.536 32.1934 10.784C31.6894 11.024 31.0894 11.144 30.3934 11.144ZM43.5261 11.144C42.7901 11.144 42.1421 10.972 41.5821 10.628C41.0301 10.276 40.5981 9.776 40.2861 9.128C39.9821 8.48 39.8301 7.708 39.8301 6.812C39.8301 5.908 39.9821 5.132 40.2861 4.484C40.5981 3.836 41.0301 3.34 41.5821 2.996C42.1421 2.652 42.7901 2.48 43.5261 2.48C44.2621 2.48 44.9061 2.652 45.4581 2.996C46.0101 3.34 46.4381 3.836 46.7421 4.484C47.0541 5.124 47.2101 5.9 47.2101 6.812C47.2101 7.708 47.0541 8.48 46.7421 9.128C46.4381 9.776 46.0101 10.276 45.4581 10.628C44.9061 10.972 44.2621 11.144 43.5261 11.144ZM43.5261 9.524C43.8381 9.524 44.1181 9.42 44.3661 9.212C44.6141 8.996 44.8101 8.688 44.9541 8.288C45.0981 7.88 45.1701 7.388 45.1701 6.812C45.1701 6.228 45.0981 5.736 44.9541 5.336C44.8101 4.928 44.6141 4.62 44.3661 4.412C44.1181 4.204 43.8381 4.1 43.5261 4.1C43.2141 4.1 42.9301 4.208 42.6741 4.424C42.4261 4.632 42.2301 4.94 42.0861 5.348C41.9421 5.748 41.8701 6.236 41.8701 6.812C41.8701 7.388 41.9421 7.88 42.0861 8.288C42.2301 8.688 42.4261 8.996 42.6741 9.212C42.9301 9.42 43.2141 9.524 43.5261 9.524Z" fill="#EE3737"/>
<path d="M0.682 13.3H6.446V14.62H2.2V16.688H6.039V18.008H2.2V21H0.682V13.3ZM11.0143 19.207H8.13227L7.45027 21H5.86627L8.88027 13.3H9.56227C10.0389 13.3 10.3616 13.52 10.5303 13.96L13.2693 21H11.6853L11.0143 19.207ZM8.53927 17.931H10.6073L9.58427 15.159H9.57327L8.53927 17.931ZM16.1082 21.088C15.3015 21.088 14.6709 20.8643 14.2162 20.417C13.7615 19.9623 13.5342 19.3317 13.5342 18.525H15.0302C15.0302 18.9063 15.1255 19.207 15.3162 19.427C15.5142 19.6397 15.7855 19.746 16.1302 19.746H17.3512C17.6739 19.746 17.9342 19.68 18.1322 19.548C18.3375 19.4087 18.4402 19.2253 18.4402 18.998V18.624C18.4402 18.2647 18.1762 18.041 17.6482 17.953L15.6242 17.612C14.9642 17.502 14.4619 17.293 14.1172 16.985C13.7799 16.6697 13.6112 16.27 13.6112 15.786V15.17C13.6112 14.7813 13.7139 14.4403 13.9192 14.147C14.1319 13.8463 14.4289 13.6153 14.8102 13.454C15.1989 13.2927 15.6462 13.212 16.1522 13.212H17.3952C17.8719 13.212 18.2935 13.311 18.6602 13.509C19.0269 13.707 19.3092 13.9857 19.5072 14.345C19.7125 14.697 19.8152 15.1077 19.8152 15.577H18.3192C18.3192 15.269 18.2349 15.0233 18.0662 14.84C17.8975 14.6493 17.6739 14.554 17.3952 14.554H16.1522C15.8442 14.554 15.5949 14.62 15.4042 14.752C15.2209 14.884 15.1292 15.06 15.1292 15.28V15.577C15.1292 15.9437 15.3822 16.171 15.8882 16.259L17.9012 16.611C18.5685 16.7283 19.0782 16.9373 19.4302 17.238C19.7822 17.5313 19.9582 17.9127 19.9582 18.382V19.108C19.9582 19.4967 19.8482 19.8413 19.6282 20.142C19.4155 20.4427 19.1149 20.6773 18.7262 20.846C18.3375 21.0073 17.8865 21.088 17.3732 21.088H16.1082ZM21.017 13.3H22.535V16.479H26.121V13.3H27.639V21H26.121V17.799H22.535V21H21.017V13.3ZM29.1084 13.3H30.6264V21H29.1084V13.3ZM34.8199 21.088C34.2406 21.088 33.7272 20.967 33.2799 20.725C32.8399 20.4757 32.4952 20.131 32.2459 19.691C32.0039 19.2437 31.8829 18.7267 31.8829 18.14V16.16C31.8829 15.5733 32.0039 15.06 32.2459 14.62C32.4952 14.1727 32.8399 13.828 33.2799 13.586C33.7272 13.3367 34.2406 13.212 34.8199 13.212H35.9859C36.5652 13.212 37.0749 13.3367 37.5149 13.586C37.9622 13.828 38.3069 14.1727 38.5489 14.62C38.7982 15.06 38.9229 15.5733 38.9229 16.16V18.14C38.9229 18.7267 38.7982 19.2437 38.5489 19.691C38.3069 20.131 37.9622 20.4757 37.5149 20.725C37.0749 20.967 36.5652 21.088 35.9859 21.088H34.8199ZM35.9859 19.746C36.4112 19.746 36.7522 19.592 37.0089 19.284C37.2729 18.976 37.4049 18.5727 37.4049 18.074V16.226C37.4049 15.7273 37.2729 15.324 37.0089 15.016C36.7522 14.708 36.4112 14.554 35.9859 14.554H34.8199C34.3946 14.554 34.0499 14.708 33.7859 15.016C33.5292 15.324 33.4009 15.7273 33.4009 16.226V18.074C33.4009 18.5727 33.5292 18.976 33.7859 19.284C34.0499 19.592 34.3946 19.746 34.8199 19.746H35.9859ZM40.0629 13.3H41.4159L45.1119 18.536V13.3H46.5969V21H45.2439L41.5479 15.764V21H40.0629V13.3Z" fill="#1F1F1F"/>
</svg>
